<?xml version="1.0" standalone="no"?>
<!DOCTYPE svg PUBLIC "-//W3C//DTD SVG 20010904//EN"
 "http://www.w3.org/TR/2001/REC-SVG-20010904/DTD/svg10.dtd">
<svg version="1.0" xmlns="http://www.w3.org/2000/svg"
 width="512.000000pt" height="512.000000pt" viewBox="0 0 512.000000 512.000000"
 preserveAspectRatio="xMidYMid meet">

<g transform="translate(0.000000,512.000000) scale(0.100000,-0.100000)"
fill="#4682B4" stroke="none">
<path d="M442 4177 c-22 -23 -22 -29 -22 -335 l0 -312 -114 0 c-99 0 -117 -3
-140 -21 l-26 -20 0 -278 c0 -344 -12 -321 163 -321 l117 0 0 -135 0 -135
-114 0 c-99 0 -117 -3 -140 -21 l-26 -20 0 -280 c0 -345 -13 -319 160 -319
l120 0 0 -508 0 -509 23 -21 c32 -30 71 -28 96 4 19 25 21 40 21 195 l0 169
171 2 c172 3 172 3 191 29 14 18 17 33 12 53 -11 46 -52 56 -224 56 l-150 0 0
1140 0 1140 852 -2 852 -3 83 -150 c46 -82 93 -158 104 -167 19 -16 47 -18
248 -18 186 0 230 3 248 15 12 8 48 64 81 123 33 59 71 127 85 152 l25 45 678
3 678 2 173 -173 173 -173 0 -794 0 -795 -173 -173 -172 -172 -680 0 -680 0
-79 143 c-43 78 -88 152 -99 165 -20 22 -24 22 -257 22 -233 0 -237 0 -257
-22 -11 -13 -55 -87 -98 -165 l-78 -141 -129 -4 c-122 -3 -131 -4 -149 -27
-25 -30 -24 -66 1 -91 19 -19 31 -20 187 -18 l167 3 23 35 c12 19 27 41 33 47
8 10 82 13 305 13 l294 0 16 -31 c9 -16 25 -39 36 -50 18 -18 39 -19 744 -19
698 0 727 1 763 19 54 28 388 367 407 413 13 33 15 141 15 848 0 782 -1 812
-19 848 -25 48 -377 398 -414 412 -19 6 -273 10 -757 10 l-729 0 -20 -26 c-11
-14 -23 -34 -26 -45 -6 -18 -19 -19 -310 -19 l-304 0 -28 43 -29 42 -892 3
-892 2 0 144 c0 130 -2 146 -21 170 -26 33 -68 34 -97 3z m2478 -554 c0 -3
-11 -26 -25 -50 l-26 -43 -168 0 -169 0 -26 44 c-14 25 -26 47 -26 50 0 3 99
6 220 6 121 0 220 -3 220 -7z m-2500 -413 l0 -180 -70 0 -70 0 0 180 0 180 70
0 70 0 0 -180z m0 -910 l0 -180 -70 0 -70 0 0 180 0 180 70 0 70 0 0 -180z
m2477 -705 c12 -22 23 -43 23 -47 0 -5 -99 -8 -220 -8 -121 0 -220 3 -220 7 0
3 12 26 26 50 l25 43 172 -2 171 -3 23 -40z"/>
<path d="M1603 3329 c-543 -63 -835 -692 -534 -1151 227 -347 690 -445 1033
-219 152 101 256 238 307 407 108 354 -54 727 -388 894 -119 59 -277 85 -418
69z m-25 -223 c-11 -73 -2 -208 17 -257 4 -12 -3 -20 -25 -29 -27 -11 -36 -10
-68 6 -47 24 -161 138 -187 186 l-19 37 25 20 c40 34 153 90 210 105 30 7 55
13 57 11 1 -1 -3 -36 -10 -79z m283 68 c30 -9 84 -32 121 -51 l67 -35 -57 -42
c-64 -47 -133 -122 -166 -179 -12 -22 -26 -35 -34 -32 -8 3 -20 5 -28 5 -30 0
-48 69 -48 185 1 136 11 165 57 165 18 0 58 -7 88 -16z m336 -242 c45 -67 69
-119 86 -186 l16 -58 -22 6 c-75 21 -255 15 -320 -10 -9 -3 -19 7 -27 26 -11
27 -11 36 2 64 32 66 183 206 222 206 6 0 25 -21 43 -48z m-934 -85 c32 -41
125 -118 175 -146 11 -6 12 -15 5 -37 -11 -34 -55 -52 -149 -61 -76 -7 -193
13 -201 35 -11 28 18 137 59 222 41 84 41 84 57 60 9 -13 33 -46 54 -73z m519
-177 c39 -38 40 -42 36 -91 -4 -40 -12 -58 -37 -82 -28 -28 -38 -32 -86 -32
-48 0 -58 4 -86 32 -25 24 -33 42 -37 82 -4 49 -3 53 36 91 35 35 45 40 87 40
42 0 52 -5 87 -40z m468 -113 l45 -12 -1 -50 c-2 -57 -31 -146 -70 -213 l-27
-46 -26 34 c-51 69 -120 136 -175 170 -48 30 -55 38 -50 60 3 14 11 30 17 37
30 29 203 41 287 20z m-788 -97 c16 -29 16 -30 -21 -87 -41 -63 -104 -125
-165 -163 l-39 -24 -29 35 c-37 44 -85 141 -103 208 -14 53 -14 53 8 47 51
-15 194 -16 252 -3 33 8 65 15 70 16 6 0 18 -12 27 -29z m539 -207 c32 -35 66
-78 75 -95 17 -32 17 -32 -17 -61 -58 -48 -236 -123 -253 -106 -2 2 1 39 7 82
10 73 2 198 -17 247 -4 10 4 21 21 32 27 16 30 16 76 -10 27 -14 75 -54 108
-89z m-354 60 c31 -41 41 -185 19 -278 l-12 -50 -49 2 c-28 1 -77 11 -109 23
-63 21 -146 66 -146 78 1 4 25 24 54 44 55 38 128 118 162 176 16 27 23 32 44
27 14 -3 30 -13 37 -22z"/>
<path d="M3720 3330 c-253 -30 -484 -195 -589 -420 -158 -338 -52 -734 252
-942 283 -193 666 -168 922 60 197 176 292 475 230 727 -22 93 -93 237 -149
305 -160 193 -421 299 -666 270z m-32 -224 c-9 -61 -9 -96 0 -162 7 -46 15
-90 18 -97 3 -9 -7 -19 -26 -27 -27 -11 -36 -10 -68 6 -47 24 -161 138 -187
186 l-19 37 25 20 c40 34 153 90 210 105 30 7 55 13 57 11 1 -1 -3 -37 -10
-79z m283 68 c30 -9 84 -32 121 -51 l67 -35 -57 -42 c-64 -47 -133 -122 -166
-179 -12 -22 -26 -35 -34 -32 -8 3 -20 5 -28 5 -30 0 -48 69 -48 185 1 136 11
165 57 165 18 0 58 -7 88 -16z m336 -242 c40 -59 79 -144 92 -200 9 -42 8 -44
-12 -38 -75 21 -255 15 -320 -10 -9 -3 -19 7 -27 26 -11 27 -11 36 2 64 32 66
183 206 222 206 6 0 25 -21 43 -48z m-934 -85 c32 -41 125 -118 175 -146 11
-6 12 -15 5 -37 -11 -34 -55 -52 -149 -61 -76 -7 -193 13 -201 35 -11 28 18
136 59 222 l41 85 16 -25 c9 -13 33 -46 54 -73z m518 -176 c34 -34 39 -44 39
-85 0 -39 -6 -52 -34 -84 -32 -34 -39 -37 -90 -37 -49 0 -59 4 -88 33 -29 29
-33 39 -33 88 0 51 3 58 37 90 32 28 45 34 84 34 41 0 51 -5 85 -39z m469
-114 l45 -12 -1 -45 c-1 -60 -27 -143 -65 -210 l-32 -54 -26 34 c-51 69 -120
136 -175 170 -48 30 -55 38 -50 60 3 14 11 30 17 37 30 29 203 41 287 20z
m-788 -97 c16 -29 16 -30 -21 -87 -41 -63 -104 -125 -165 -163 l-39 -24 -29
35 c-36 42 -82 136 -102 208 l-16 53 23 -6 c51 -15 194 -16 252 -3 33 8 65 15
70 16 6 0 18 -12 27 -29z m521 -189 c33 -31 70 -75 84 -99 l26 -43 -23 -24
c-40 -42 -246 -132 -264 -114 -2 2 1 39 7 82 10 73 2 197 -17 247 -4 10 4 21
21 31 26 15 31 14 68 -4 21 -11 66 -45 98 -76z m-337 48 c30 -25 42 -192 20
-284 l-12 -50 -49 2 c-28 1 -77 11 -109 23 -63 21 -146 66 -146 78 0 4 23 22
51 41 58 40 129 116 161 173 19 34 26 38 48 33 14 -4 30 -11 36 -16z"/>
<path d="M1329 1439 c-15 -5 -33 -24 -39 -40 -11 -27 -10 -34 7 -57 20 -27 22
-27 151 -30 121 -2 133 -1 152 18 26 26 26 72 -1 96 -18 16 -39 19 -133 21
-61 1 -123 -2 -137 -8z"/>
</g>
</svg>
