<?xml version="1.0" standalone="no"?>
<!DOCTYPE svg PUBLIC "-//W3C//DTD SVG 20010904//EN"
 "http://www.w3.org/TR/2001/REC-SVG-20010904/DTD/svg10.dtd">
<svg version="1.0" xmlns="http://www.w3.org/2000/svg"
 width="512.000000pt" height="512.000000pt" viewBox="0 0 512.000000 512.000000"
 preserveAspectRatio="xMidYMid meet">

<g transform="translate(0.000000,512.000000) scale(0.100000,-0.100000)"
fill="#4682B4" stroke="none">
<path d="M438 5105 c-104 -28 -189 -102 -237 -204 l-26 -56 0 -1360 0 -1360
33 -67 c39 -80 111 -148 192 -181 55 -22 56 -22 783 -25 l728 -3 -6 -42 c-24
-179 -34 -318 -24 -346 22 -62 14 -61 609 -61 593 0 585 -1 610 59 10 24 9 60
-4 188 -9 87 -19 168 -21 181 l-5 22 659 0 c694 0 725 2 812 46 62 31 142 121
171 192 l23 57 3 1289 c1 770 -1 1317 -7 1357 -19 137 -90 235 -211 293 l-65
31 -1985 2 c-1607 1 -1994 -1 -2032 -12z m4016 -208 c25 -14 48 -39 63 -66
l23 -44 0 -1134 0 -1133 -2090 0 -2090 0 0 1113 c0 631 4 1129 10 1151 11 48
36 84 80 114 l33 22 1966 0 1966 0 39 -23z m86 -2644 c0 -88 -27 -144 -84
-178 l-43 -25 -1956 0 c-1361 0 -1964 3 -1984 11 -69 26 -103 82 -110 185 l-6
74 2092 0 2091 0 0 -67z m-1656 -480 c4 -43 9 -99 13 -125 l6 -48 -413 0 -412
0 6 38 c3 20 8 69 11 107 4 39 9 78 11 88 5 16 32 17 388 17 l383 0 7 -77z"/>
<path d="M756 1238 c-25 -23 -221 -388 -232 -433 -8 -33 22 -91 54 -104 20 -8
548 -11 1890 -9 l1864 3 24 28 c14 17 24 41 24 59 0 41 -191 413 -231 451
l-29 27 -1670 0 -1669 0 -25 -22z m3320 -265 l45 -83 -1665 0 c-916 0 -1666 3
-1666 6 0 3 19 42 41 85 l41 79 1580 -2 1579 -3 45 -82z"/>
<path d="M4260 491 c-133 -43 -230 -140 -272 -274 -33 -107 -20 -176 39 -206
30 -15 836 -15 866 0 61 31 72 98 37 212 -40 129 -146 232 -279 271 -79 23
-316 21 -391 -3z m398 -215 c23 -15 48 -39 57 -52 l15 -24 -270 0 -271 0 21
27 c56 71 92 82 261 80 143 -2 147 -3 187 -31z"/>
</g>
</svg>
