<?xml version="1.0" standalone="no"?>
<!DOCTYPE svg PUBLIC "-//W3C//DTD SVG 20010904//EN"
 "http://www.w3.org/TR/2001/REC-SVG-20010904/DTD/svg10.dtd">
<svg version="1.0" xmlns="http://www.w3.org/2000/svg"
 width="512.000000pt" height="512.000000pt" viewBox="0 0 512.000000 512.000000"
 preserveAspectRatio="xMidYMid meet">

<g transform="translate(0.000000,512.000000) scale(0.100000,-0.100000)"
fill="#4682B4" stroke="none">
<path d="M2335 4419 c-152 -37 -306 -136 -398 -254 -47 -61 -111 -189 -133
-270 -21 -75 -32 -573 -15 -708 23 -187 94 -333 230 -467 153 -152 324 -221
546 -221 124 0 228 25 343 82 162 79 217 170 131 214 -33 17 -58 10 -122 -34
-114 -78 -222 -111 -357 -112 -53 0 -121 7 -155 16 -208 53 -379 217 -447 429
-16 49 -21 101 -25 259 -3 108 -2 197 2 197 4 0 38 -20 75 -45 92 -61 212
-117 264 -122 36 -4 48 -1 66 17 28 28 24 62 -20 183 -17 49 -30 90 -28 92 2
2 35 -17 73 -42 154 -99 467 -242 693 -316 l125 -41 -6 -72 c-4 -39 -18 -103
-32 -141 -14 -39 -25 -80 -25 -92 0 -30 43 -71 75 -71 41 0 69 38 101 135 l29
90 0 365 c0 325 -2 372 -18 424 -45 144 -125 266 -235 359 -75 63 -217 132
-314 151 -111 23 -320 20 -423 -5z m467 -161 c92 -34 157 -78 227 -154 66 -70
122 -175 140 -262 13 -61 15 -402 3 -402 -38 0 -391 139 -526 207 -125 63
-260 149 -327 209 -72 65 -99 75 -139 54 -10 -5 -23 -24 -29 -41 -13 -38 -14
-188 -2 -241 7 -28 6 -36 -3 -31 -47 27 -138 93 -172 125 -41 38 -41 39 -33
86 42 225 191 393 407 459 69 21 92 23 232 20 136 -4 163 -7 222 -29z"/>
<path d="M615 4159 c-53 -16 -72 -70 -39 -117 l15 -22 445 0 444 0 0 -85 c0
-118 -25 -181 -104 -261 -44 -45 -77 -68 -121 -85 -59 -23 -67 -24 -477 -27
l-418 -3 0 78 c0 94 18 160 61 228 18 28 32 62 32 77 0 40 -29 68 -70 68 -42
0 -82 -40 -120 -120 -50 -105 -53 -131 -53 -491 0 -376 7 -429 72 -552 72
-136 234 -262 387 -302 82 -21 226 -21 306 0 212 56 384 229 439 442 12 47 16
114 16 296 l0 236 30 21 c40 29 114 133 139 198 22 55 42 198 40 285 -1 73
-16 125 -39 137 -24 13 -942 12 -985 -1z m649 -1153 c-92 -286 -411 -413 -672
-268 -63 35 -144 118 -175 178 -48 95 -57 145 -57 325 l0 167 428 5 c238 2
440 8 457 14 l30 9 3 -190 c2 -154 -1 -199 -14 -240z"/>
<path d="M4110 4041 c-99 -26 -167 -67 -251 -151 -81 -80 -127 -158 -154 -260
-22 -82 -21 -559 1 -643 55 -213 227 -386 439 -442 80 -21 224 -21 306 0 153
40 315 166 387 302 61 116 72 185 72 466 0 188 -4 263 -15 306 -56 216 -209
370 -423 425 -84 22 -276 20 -362 -3z m341 -145 c146 -44 247 -144 290 -287
11 -37 19 -83 17 -103 l-3 -37 -65 39 c-47 29 -76 55 -106 98 -33 49 -46 60
-72 62 -27 3 -42 -5 -88 -48 -61 -55 -183 -119 -279 -145 -33 -9 -115 -19
-182 -22 l-123 -6 0 60 c0 171 126 332 305 389 55 17 248 17 306 0z m82 -462
c23 -20 84 -56 135 -81 l92 -45 0 -117 c0 -175 -37 -280 -134 -376 -94 -93
-197 -136 -328 -136 -202 0 -371 122 -438 316 -16 46 -20 84 -20 180 l0 122
128 6 c183 9 336 53 456 132 28 19 55 34 59 34 5 1 28 -15 50 -35z"/>
<path d="M473 2395 c-194 -42 -360 -190 -435 -385 l-33 -85 0 -341 c0 -328 1
-343 20 -364 44 -50 46 -50 640 -50 404 0 562 3 578 12 50 26 60 69 26 112
l-20 26 -550 0 -549 0 0 258 c0 290 10 359 61 448 82 144 258 244 408 232 l38
-3 -59 -250 c-53 -223 -58 -252 -46 -277 7 -14 63 -79 125 -142 150 -155 140
-156 296 6 64 68 120 133 123 146 4 13 -17 123 -50 260 -31 130 -56 243 -56
250 0 15 70 16 142 1 76 -16 154 -59 226 -123 38 -34 72 -56 86 -56 34 0 65
30 72 68 7 32 3 38 -64 103 -80 76 -176 128 -282 153 -87 21 -603 21 -697 1z
m366 -172 c5 -21 31 -129 57 -241 l48 -203 -62 -62 -62 -62 -61 61 -61 61 51
219 c29 121 55 229 58 242 8 33 21 27 32 -15z"/>
<path d="M3946 2394 c-94 -23 -195 -77 -268 -143 -73 -67 -86 -96 -64 -140 31
-59 70 -55 148 15 72 64 150 107 226 123 72 15 142 14 142 -1 0 -7 -25 -120
-56 -250 -33 -137 -54 -247 -50 -260 3 -13 59 -78 123 -146 156 -162 146 -161
296 -6 62 63 118 128 125 142 12 25 7 54 -46 277 l-59 250 38 3 c150 12 326
-88 408 -232 51 -89 61 -158 61 -448 l0 -258 -549 0 -550 0 -20 -26 c-34 -43
-24 -86 26 -112 16 -9 174 -12 578 -12 594 0 596 0 640 50 19 21 20 36 20 364
l0 341 -33 85 c-76 198 -242 343 -440 385 -95 21 -612 19 -696 -1z m367 -156
c3 -13 29 -121 58 -242 l51 -219 -61 -61 -61 -61 -62 62 -62 62 48 203 c62
265 65 278 75 278 5 0 11 -10 14 -22z"/>
<path d="M2075 2330 c-176 -47 -267 -99 -395 -229 -130 -131 -195 -254 -225
-429 -18 -104 -22 -833 -4 -879 14 -38 57 -83 96 -99 48 -21 1978 -21 2026 0
39 16 82 61 96 99 18 46 14 775 -4 879 -30 175 -95 298 -225 429 -129 130
-240 194 -410 234 -53 12 -142 15 -475 14 -368 0 -417 -2 -480 -19z m135 -167
c18 -57 68 -130 115 -168 l42 -35 -24 -127 c-12 -69 -25 -128 -27 -130 -2 -2
-61 100 -131 228 -75 138 -123 235 -118 240 9 9 78 25 115 28 11 1 21 -12 28
-36z m550 31 c0 -22 -48 -78 -84 -99 -60 -35 -79 -60 -78 -98 1 -17 21 -140
46 -272 l44 -240 -60 -112 c-32 -62 -63 -113 -68 -113 -5 0 -36 51 -68 113
l-60 112 44 240 c25 132 45 255 46 272 1 38 -18 63 -78 98 -36 21 -84 77 -84
99 0 3 90 6 200 6 110 0 200 -3 200 -6z m278 -15 c12 -5 22 -11 22 -14 0 -11
-253 -466 -256 -462 -2 2 -15 61 -27 130 l-24 127 42 35 c47 38 97 111 115
168 l12 38 46 -7 c26 -4 57 -11 70 -15z m-815 -629 c238 -435 287 -516 310
-524 65 -23 59 -31 376 546 l294 537 41 -29 c63 -43 151 -138 191 -205 20 -33
48 -96 63 -140 l27 -80 0 -410 0 -410 -965 0 -965 0 0 410 0 410 27 80 c47
138 131 254 248 341 l45 33 13 -22 c7 -12 140 -254 295 -537z"/>
</g>
</svg>
