<?xml version="1.0" standalone="no"?>
<!DOCTYPE svg PUBLIC "-//W3C//DTD SVG 20010904//EN"
 "http://www.w3.org/TR/2001/REC-SVG-20010904/DTD/svg10.dtd">
<svg version="1.0" xmlns="http://www.w3.org/2000/svg"
 width="512.000000pt" height="512.000000pt" viewBox="0 0 512.000000 512.000000"
 preserveAspectRatio="xMidYMid meet">

<g transform="translate(0.000000,512.000000) scale(0.100000,-0.100000)"
fill="#4682B4" stroke="none">
<path d="M2412 4835 c-404 -73 -692 -331 -784 -701 -18 -74 -22 -115 -21 -244
1 -85 8 -186 15 -225 13 -68 13 -72 -11 -118 -19 -38 -24 -62 -24 -120 2 -180
127 -334 288 -355 l57 -7 23 -61 c12 -33 32 -79 44 -102 20 -38 21 -57 21
-269 l0 -228 -87 -87 -88 -87 -484 -164 c-527 -179 -539 -184 -560 -264 -5
-21 -44 -319 -87 -663 l-77 -626 17 -58 c13 -44 29 -70 64 -105 88 -88 -75
-81 1842 -81 1917 0 1754 -7 1842 81 35 35 51 61 64 105 l17 59 -78 629 c-42
346 -82 644 -87 663 -5 18 -24 48 -42 67 -30 30 -86 51 -518 195 l-484 161
-87 88 -87 87 0 228 0 228 29 57 c15 31 36 78 45 103 18 46 18 46 72 52 222
23 370 332 242 508 l-31 42 16 51 c63 207 52 447 -29 608 -82 164 -229 303
-384 364 -25 10 -66 39 -92 66 -111 114 -333 163 -556 123z m340 -108 c73 -23
136 -64 163 -107 16 -26 36 -42 62 -50 177 -57 347 -223 405 -397 45 -132 45
-314 1 -453 -17 -52 -20 -55 -53 -58 l-36 -3 -16 85 c-29 154 -97 264 -211
337 -85 55 -106 57 -160 16 -75 -58 -127 -72 -252 -72 -123 1 -211 17 -387 72
l-117 36 -58 -29 c-80 -40 -166 -128 -204 -208 -16 -35 -37 -102 -46 -149
l-15 -85 -47 -4 c-25 -2 -49 1 -53 6 -13 19 -23 141 -21 261 2 144 25 243 82
360 114 229 348 397 629 450 92 17 265 13 334 -8z m-461 -742 c304 -88 508
-85 649 9 l38 25 44 -28 c123 -78 176 -219 165 -439 -11 -214 -84 -476 -180
-652 -66 -120 -185 -247 -269 -285 -301 -138 -590 79 -732 548 -52 168 -69
273 -70 427 -1 127 2 153 22 210 12 36 38 86 56 111 33 44 117 109 142 109 7
0 68 -16 135 -35z m-456 -482 c7 -70 41 -255 54 -300 9 -29 7 -33 -10 -33 -32
0 -94 36 -124 72 -68 80 -91 208 -49 265 25 34 59 53 96 53 25 0 27 -3 33 -57z
m1539 43 c50 -21 73 -86 57 -163 -20 -102 -98 -193 -178 -209 l-32 -6 14 53
c19 70 42 197 50 277 6 57 9 62 31 62 14 0 40 -6 58 -14z m-1032 -1020 c140
-67 285 -70 423 -8 65 29 151 93 202 151 l32 36 0 -150 1 -150 -218 -223 -217
-223 -222 223 -223 223 0 149 0 149 74 -71 c50 -47 99 -82 148 -106z m-59
-434 l208 -208 -142 -167 c-78 -92 -145 -164 -149 -160 -4 4 -65 145 -135 311
l-128 304 64 64 c35 35 66 64 69 64 3 0 99 -94 213 -208z m836 144 l64 -65
-128 -306 c-71 -168 -132 -308 -136 -310 -4 -3 -70 70 -148 162 l-142 167 208
208 c114 114 210 208 213 208 3 0 34 -29 69 -64z m-1120 -468 c81 -191 152
-353 158 -359 23 -23 57 -3 117 68 34 39 63 72 66 72 3 0 22 -30 42 -67 l37
-68 -137 -519 -138 -520 -635 -3 -634 -2 -45 22 c-34 18 -51 35 -69 71 l-24
48 80 635 c69 548 82 638 99 654 19 19 897 321 923 317 9 -1 73 -142 160 -349z
m1738 201 c354 -118 457 -156 471 -174 15 -19 32 -136 96 -654 l78 -631 -23
-47 c-18 -36 -35 -54 -69 -70 l-44 -23 -633 0 -632 0 -11 38 c-6 20 -69 255
-139 522 l-129 485 37 68 36 68 35 -39 c19 -21 50 -55 68 -75 33 -38 71 -48
90 -24 5 6 74 165 152 352 155 370 148 355 158 355 4 0 211 -68 459 -151z
m-1088 -263 l59 -72 -45 -82 -45 -83 -60 3 -59 3 -44 80 -44 81 72 85 c83 99
70 101 166 -15z m92 -826 c71 -267 128 -491 129 -497 0 -10 -68 -13 -310 -13
-170 0 -310 4 -310 8 0 6 104 402 251 955 l10 38 51 -3 51 -3 128 -485z"/>
<path d="M3568 1589 c-15 -8 -18 -25 -18 -99 l0 -90 -125 0 c-181 0 -165 38
-165 -390 0 -337 1 -351 20 -370 19 -19 33 -20 313 -20 249 0 296 2 315 16
l22 15 0 358 c0 334 -1 359 -18 374 -15 14 -41 17 -140 17 l-122 0 0 78 c0
106 -28 143 -82 111z m262 -579 l0 -290 -235 0 -235 0 0 290 0 290 235 0 235
0 0 -290z"/>
</g>
</svg>
