<?xml version="1.0" standalone="no"?>
<!DOCTYPE svg PUBLIC "-//W3C//DTD SVG 20010904//EN"
 "http://www.w3.org/TR/2001/REC-SVG-20010904/DTD/svg10.dtd">
<svg version="1.0" xmlns="http://www.w3.org/2000/svg"
 width="512.000000pt" height="512.000000pt" viewBox="0 0 512.000000 512.000000"
 preserveAspectRatio="xMidYMid meet">

<g transform="translate(0.000000,512.000000) scale(0.100000,-0.100000)"
fill="#4682B4" stroke="none">
<path d="M2360 4904 c-19 -2 -78 -9 -130 -15 -219 -25 -466 -88 -679 -174
-203 -81 -441 -215 -475 -267 -14 -21 -11 -86 33 -695 l49 -671 -18 -183 c-45
-446 -76 -1064 -67 -1329 12 -316 83 -557 231 -779 156 -235 382 -400 675
-495 348 -113 820 -113 1166 0 584 189 905 672 905 1362 0 314 -32 887 -70
1247 l-17 170 48 675 c44 612 47 677 33 698 -35 53 -287 193 -494 275 -311
122 -589 176 -940 182 -118 2 -231 1 -250 -1z m130 -426 l0 -293 -45 -18 c-62
-26 -131 -105 -151 -173 -12 -44 -15 -105 -12 -351 3 -285 4 -300 25 -339 49
-92 126 -147 224 -160 102 -14 217 48 273 146 l31 55 3 298 c3 246 0 307 -12
351 -20 68 -89 147 -151 173 l-45 18 0 293 0 294 88 -7 c407 -31 773 -141
1110 -334 l87 -50 -71 -996 c-41 -564 -79 -1029 -88 -1073 -97 -478 -449 -838
-930 -950 -94 -21 -135 -25 -266 -25 -132 0 -172 4 -268 26 -494 115 -860 504
-938 997 -4 25 -39 488 -78 1030 l-72 985 34 23 c108 76 392 204 577 261 178
55 450 101 638 109 l37 2 0 -292z m134 -443 c18 -9 42 -33 54 -54 21 -37 22
-50 22 -312 0 -241 -2 -278 -18 -308 -26 -52 -65 -76 -122 -76 -57 0 -96 24
-122 76 -16 30 -18 67 -18 308 0 258 1 275 21 310 11 21 33 45 47 54 34 21 94
22 136 2z m-1293 -2064 c124 -261 306 -458 554 -600 526 -301 1204 -212 1631
214 113 113 179 201 248 335 49 95 114 266 117 308 1 9 5 -3 9 -28 16 -91 23
-629 10 -750 -32 -303 -137 -542 -320 -730 -175 -180 -402 -291 -705 -346
-141 -25 -489 -25 -630 0 -520 94 -847 371 -980 830 -48 166 -58 296 -51 637
3 168 9 327 12 354 l7 47 24 -83 c13 -46 46 -131 74 -188z"/>
<path d="M2355 2965 l-25 -24 0 -234 c0 -302 -21 -277 231 -277 249 0 229 -25
229 279 l0 232 -25 24 c-24 25 -26 25 -205 25 -179 0 -181 0 -205 -25z m295
-255 l0 -140 -90 0 -90 0 0 140 0 140 90 0 90 0 0 -140z"/>
</g>
</svg>
