<?xml version="1.0" standalone="no"?>
<!DOCTYPE svg PUBLIC "-//W3C//DTD SVG 20010904//EN"
 "http://www.w3.org/TR/2001/REC-SVG-20010904/DTD/svg10.dtd">
<svg version="1.0" xmlns="http://www.w3.org/2000/svg"
 width="512.000000pt" height="512.000000pt" viewBox="0 0 512.000000 512.000000"
 preserveAspectRatio="xMidYMid meet">

<g transform="translate(0.000000,512.000000) scale(0.100000,-0.100000)"
fill="#4682B4" stroke="none">
<path d="M638 4949 c-182 -23 -338 -134 -414 -294 -82 -171 -83 -335 -4 -501
65 -136 185 -238 340 -290 76 -26 244 -26 320 0 283 96 445 366 386 646 -63
297 -321 478 -628 439z m236 -180 c203 -79 298 -334 202 -544 -133 -290 -565
-297 -706 -12 -117 238 6 513 257 577 60 15 181 5 247 -21z"/>
<path d="M685 4708 c-41 -24 -44 -38 -45 -192 l0 -149 96 -98 c53 -53 108
-100 122 -104 57 -14 111 40 97 97 -4 14 -40 58 -81 99 l-74 73 0 116 c-1 120
-6 136 -47 158 -27 15 -42 15 -68 0z"/>
<path d="M3935 4946 c-37 -16 -70 -52 -84 -89 -7 -19 -11 -225 -11 -618 0
-654 -2 -634 66 -685 l37 -29 458 0 c447 0 458 0 485 21 15 11 37 33 48 48 21
27 21 37 21 645 l0 618 -29 37 c-50 66 -47 66 -528 66 -339 -1 -440 -4 -463
-14z m865 -706 l0 -560 -400 0 -400 0 0 560 0 560 400 0 400 0 0 -560z"/>
<path d="M4279 4627 c-44 -34 -47 -89 -7 -127 19 -17 35 -20 128 -20 93 0 109
3 128 20 28 27 37 62 21 92 -22 42 -39 47 -149 47 -67 0 -111 -4 -121 -12z"/>
<path d="M4199 4307 c-44 -34 -47 -89 -7 -127 20 -19 35 -20 208 -20 173 0
188 1 208 20 28 27 37 62 21 92 -24 45 -34 47 -229 47 -130 0 -190 -3 -201
-12z"/>
<path d="M4279 3987 c-44 -34 -47 -89 -7 -127 19 -17 35 -20 128 -20 93 0 109
3 128 20 28 27 37 62 21 92 -22 42 -39 47 -149 47 -67 0 -111 -4 -121 -12z"/>
<path d="M1600 4707 c-49 -16 -133 -102 -148 -153 -17 -59 -17 -1369 0 -1428
16 -55 99 -138 154 -154 29 -8 142 -12 373 -12 l331 0 0 -23 c0 -44 -39 -175
-70 -236 -17 -34 -47 -79 -66 -101 l-36 -40 -886 0 c-665 0 -895 -3 -926 -12
-55 -16 -138 -99 -154 -154 -15 -53 -15 -175 0 -228 23 -78 135 -166 212 -166
15 0 16 -71 16 -855 0 -947 -3 -899 66 -951 37 -29 39 -29 175 -29 150 0 166
5 213 69 20 27 21 41 24 497 l3 469 399 0 c363 0 400 -1 400 -16 0 -77 88
-189 166 -212 28 -8 134 -12 338 -12 l296 0 0 -320 0 -320 -215 0 c-216 0
-216 0 -240 -25 -33 -32 -33 -78 0 -110 l24 -25 511 0 511 0 24 25 c33 32 33
78 0 110 -24 25 -24 25 -240 25 l-215 0 0 320 0 320 298 0 c349 0 366 3 435
80 40 44 67 103 67 144 0 15 37 16 400 16 l400 0 0 -455 c0 -506 -1 -501 66
-551 37 -29 39 -29 175 -29 150 0 166 5 213 69 21 27 21 36 24 897 2 830 3
869 20 869 48 0 114 34 155 80 52 57 67 103 67 200 0 97 -15 143 -67 200 -72
80 -72 80 -555 80 -380 0 -418 1 -418 16 0 76 -80 182 -157 208 -57 20 -256
22 -317 4 -78 -23 -166 -135 -166 -212 0 -14 -18 -16 -149 -16 l-149 0 -36 40
c-19 22 -49 67 -66 101 -31 61 -70 192 -70 236 l0 23 333 0 c388 0 400 2 470
80 24 26 49 66 55 88 17 56 17 1368 0 1424 -6 22 -31 62 -55 88 -76 85 -12 80
-1057 79 -641 -1 -932 -4 -956 -12z m1895 -172 l25 -24 0 -496 0 -495 -960 0
-960 0 0 495 0 496 25 24 24 25 911 0 911 0 24 -25z m25 -1270 c0 -88 -2 -98
-25 -120 l-24 -25 -911 0 -911 0 -24 25 c-23 22 -25 32 -25 120 l0 95 960 0
960 0 0 -95z m-866 -366 c7 -68 52 -213 91 -289 l25 -50 -210 0 -210 0 25 50
c39 76 84 221 91 289 l7 61 87 0 87 0 7 -61z m1081 -284 c14 -13 25 -31 25
-40 0 -13 -22 -15 -160 -15 -138 0 -160 2 -160 15 0 9 11 27 25 40 23 24 31
25 135 25 104 0 112 -1 135 -25z m1040 -240 c22 -21 25 -33 25 -95 0 -62 -3
-74 -25 -95 l-24 -25 -2191 0 -2191 0 -24 25 c-22 21 -25 33 -25 95 0 62 3 74
25 95 l24 25 2191 0 2191 0 24 -25z m-4055 -1215 l0 -840 -80 0 -80 0 0 840 0
840 80 0 80 0 0 -840z m3520 520 l0 -320 -400 0 -400 0 0 56 c0 81 -18 129
-67 184 -75 83 -42 80 -811 80 -501 0 -685 -3 -716 -12 -55 -16 -138 -99 -154
-154 -7 -23 -12 -67 -12 -98 l0 -56 -400 0 -400 0 0 320 0 320 1680 0 1680 0
0 -320z m320 -520 l0 -840 -80 0 -80 0 0 840 0 840 80 0 80 0 0 -840z m-1305
335 c24 -23 25 -28 25 -175 0 -147 -1 -152 -25 -175 l-24 -25 -671 0 -671 0
-24 25 c-24 23 -25 28 -25 175 0 147 1 152 25 175 l24 25 671 0 671 0 24 -25z"/>
</g>
</svg>
